<svg xmlns="http://www.w3.org/2000/svg" viewBox="0 0 24 24" width="32" height="32"><g><rect fill="#fff" width="24" height="24" rx="6"/><path d="M17.525 2.273H6.475A4.2 4.2 0 0 0 2.273 6.475v11.05a4.2 4.2 0 0 0 4.202 4.202h5.95v-7.2h-2.4v-2.4h2.4v-1.8c0-2.1 1.275-3.25 3.15-3.25.9 0 1.675.067 1.9.097v2.2h-1.3c-1.025 0-1.225.488-1.225 1.2v1.553h2.45l-.32 2.4h-2.13v7.2h4.175a4.2 4.2 0 0 0 4.202-4.202V6.475a4.2 4.2 0 0 0-4.202-4.202z" fill="#1877F3"/><path d="M15.395 14.273l.32-2.4h-2.45V10.32c0-.712.2-1.2 1.225-1.2h1.3v-2.2c-.225-.03-1-.097-1.9-.097-1.875 0-3.15 1.15-3.15 3.25v1.8h-2.4v2.4h2.4v7.2h2.95v-7.2z" fill="#fff"/></g></svg>