<svg xmlns="http://www.w3.org/2000/svg" viewBox="0 0 24 24" width="32" height="32"><g><rect fill="#fff" width="24" height="24" rx="6"/><path d="M12 7.2A4.8 4.8 0 1 0 16.8 12 4.8 4.8 0 0 0 12 7.2zm0 7.8A3 3 0 1 1 15 12a3 3 0 0 1-3 3zm4.95-8.1a1.12 1.12 0 1 0 1.12 1.12 1.12 1.12 0 0 0-1.12-1.12zm3.18 1.14a6.36 6.36 0 0 0-1.74-4.5A6.36 6.36 0 0 0 16.08 2.1C14.7 1.7 9.3 1.7 7.92 2.1A6.36 6.36 0 0 0 4.5 3.78 6.36 6.36 0 0 0 2.1 7.92C1.7 9.3 1.7 14.7 2.1 16.08a6.36 6.36 0 0 0 1.74 4.5 6.36 6.36 0 0 0 4.5 1.74c1.38.4 6.78.4 8.16 0a6.36 6.36 0 0 0 4.5-1.74 6.36 6.36 0 0 0 1.74-4.5c.4-1.38.4-6.78 0-8.16zM21.54 15.6a4.54 4.54 0 0 1-1.28 3.22 4.54 4.54 0 0 1-3.22 1.28c-1.27.38-5.1.38-6.36 0a4.54 4.54 0 0 1-3.22-1.28 4.54 4.54 0 0 1-1.28-3.22c-.38-1.27-.38-5.1 0-6.36A4.54 4.54 0 0 1 4.68 5.9a4.54 4.54 0 0 1 3.22-1.28c1.27-.38 5.1-.38 6.36 0a4.54 4.54 0 0 1 3.22 1.28 4.54 4.54 0 0 1 1.28 3.22c.38 1.27.38 5.1 0 6.36z" fill="#E4405F"/></g></svg>